HIERARCHY
ROOT joint_0
{
	OFFSET 0.000000 0.000000 0.000000
	CHANNELS 6 Xposition Yposition Zposition Zrotation Yrotation Xrotation 
	JOINT joint_1
	{
		OFFSET 6.004005 -1.946999 100.587036
		CHANNELS 3 Zrotation Yrotation Xrotation
		JOINT joint_2
		{
			OFFSET -4.601006 -0.824997 91.925903
			CHANNELS 3 Zrotation Yrotation Xrotation
			JOINT joint_3
			{
				OFFSET -5.420998 -1.130005 91.774048
				CHANNELS 3 Zrotation Yrotation Xrotation
				JOINT joint_4
				{
					OFFSET 4.308998 -3.777992 123.473999
					CHANNELS 3 Zrotation Yrotation Xrotation
					JOINT joint_5
					{
						OFFSET 25.565002 -6.305008 79.437988
						CHANNELS 3 Zrotation Yrotation Xrotation
						End Site
						{
							OFFSET 0.000000 0.000000 0.000000
						}
					}
				}
				JOINT joint_6
				{
					OFFSET -1.750000 -28.655998 68.557983
					CHANNELS 3 Zrotation Yrotation Xrotation
					JOINT joint_7
					{
						OFFSET -17.692001 -116.544006 -17.244019
						CHANNELS 3 Zrotation Yrotation Xrotation
						JOINT joint_8
						{
							OFFSET 27.063004 -23.640991 -266.895020
							CHANNELS 3 Zrotation Yrotation Xrotation
							JOINT joint_9
							{
								OFFSET 40.722000 -15.761017 -232.488953
								CHANNELS 3 Zrotation Yrotation Xrotation
								End Site
								{
									OFFSET 0.000000 0.000000 0.000000
								}
							}
						}
					}
				}
				JOINT joint_10
				{
					OFFSET 6.593002 24.457001 69.892944
					CHANNELS 3 Zrotation Yrotation Xrotation
					JOINT joint_11
					{
						OFFSET 24.311996 114.920002 -19.872925
						CHANNELS 3 Zrotation Yrotation Xrotation
						JOINT joint_12
						{
							OFFSET 21.081001 15.319000 -268.037964
							CHANNELS 3 Zrotation Yrotation Xrotation
							JOINT joint_13
							{
								OFFSET 27.794006 -8.947001 -234.744080
								CHANNELS 3 Zrotation Yrotation Xrotation
								End Site
								{
									OFFSET 0.000000 0.000000 0.000000
								}
							}
						}
					}
				}
			}
		}
	}
	JOINT joint_14
	{
		OFFSET -6.627998 -80.520004 -98.790039
		CHANNELS 3 Zrotation Yrotation Xrotation
		JOINT joint_15
		{
			OFFSET -43.638000 -13.751999 -502.538971
			CHANNELS 3 Zrotation Yrotation Xrotation
			JOINT joint_16
			{
				OFFSET -39.532999 -9.912994 -398.071007
				CHANNELS 3 Zrotation Yrotation Xrotation
				JOINT joint_17
				{
					OFFSET 174.940004 -34.660995 -75.688002
					CHANNELS 3 Zrotation Yrotation Xrotation
					End Site
					{
						OFFSET 0.000000 0.000000 0.000000
					}
				}
			}
		}
	}
	JOINT joint_18
	{
		OFFSET 12.591003 79.842003 -98.765015
		CHANNELS 3 Zrotation Yrotation Xrotation
		JOINT joint_19
		{
			OFFSET -39.080002 -1.297001 -503.101013
			CHANNELS 3 Zrotation Yrotation Xrotation
			JOINT joint_20
			{
				OFFSET -51.570000 -0.514000 -396.815987
				CHANNELS 3 Zrotation Yrotation Xrotation
				JOINT joint_21
				{
					OFFSET 178.987999 -11.521999 -73.244003
					CHANNELS 3 Zrotation Yrotation Xrotation
					End Site
					{
						OFFSET 0.000000 0.000000 0.000000
					}
				}
			}
		}
	}
}
MOTION
Frames: 12
Frame Time: 0.016667
74.276000 -123.131000 1096.027950 -0.779605 -0.162949 -0.214057 0.738463 -0.511750 -0.069857 0.747702 0.028157 0.018186 0.744080 -0.064039 -0.023927 -0.140438 -0.505061 0.311319 0.000000 0.000000 0.000000 -0.411888 0.452889 0.601890 -0.083808 0.535120 -0.260047 0.025164 -0.418121 -0.018123 0.000000 0.000000 0.000000 -0.460761 0.116281 0.081448 0.026380 0.234943 -0.081293 0.019374 -0.155404 0.113806 0.000000 0.000000 0.000000 -0.014479 0.015961 -0.274671 -0.136871 0.014124 1.135129 -0.028948 0.136305 0.014482 0.000000 0.000000 0.000000 0.290241 0.091993 0.703618 0.397073 -0.098417 -0.666317 0.290624 0.439958 0.147242 0.000000 0.000000 0.000000 
75.004000 -123.695000 1096.147950 -0.642981 0.024593 -0.205768 0.881967 -0.519076 -0.144948 0.897501 0.039826 0.064668 0.888297 -0.096115 -0.062748 -0.173275 -0.745823 0.353411 0.000000 0.000000 0.000000 -0.794855 0.687628 0.619882 -0.091544 0.716908 -0.258590 0.084843 -0.760308 0.190734 0.000000 0.000000 0.000000 -0.552715 0.072267 0.146697 0.029554 0.227246 -0.110012 0.017892 -0.233347 0.076609 0.000000 0.000000 0.000000 -0.075816 -0.096822 -0.264010 -0.202267 -0.055513 1.178926 -0.087776 0.103805 -0.017408 0.000000 0.000000 0.000000 0.248732 -0.053042 0.760537 0.364325 -0.165547 -0.724589 0.251981 0.470696 0.133408 0.000000 0.000000 0.000000 
76.413000 -124.366000 1096.276000 -0.475914 0.417214 -0.171647 0.980273 -0.594966 -0.206455 1.002297 0.059827 0.114553 0.986959 -0.138677 -0.103601 -0.217329 -1.331136 0.343546 0.000000 0.000000 0.000000 -0.808359 1.089367 0.490888 -0.101500 1.045073 0.095088 0.118054 -1.380666 0.142916 0.000000 0.000000 0.000000 -0.421214 0.098860 0.350615 0.047900 0.314467 -0.285331 0.015282 -0.577419 -0.052996 0.000000 0.000000 0.000000 -0.136365 -0.356624 -0.301449 -0.277444 -0.192831 1.271100 -0.153229 0.076252 -0.051183 0.000000 0.000000 0.000000 0.186136 -0.344327 0.835818 0.317107 -0.319000 -0.851477 0.190866 0.518772 0.111496 0.000000 0.000000 0.000000 
78.386000 -125.157000 1096.417970 -0.278038 0.979305 -0.114735 1.058378 -0.718024 -0.262220 1.087509 0.087514 0.172748 1.064707 -0.196689 -0.153953 -0.270188 -2.205623 0.284585 0.000000 0.000000 0.000000 -0.574684 1.640379 0.267783 -0.115315 1.504055 0.722147 0.134299 -2.257836 -0.094274 0.000000 0.000000 0.000000 -0.117668 0.175921 0.664077 0.077106 0.469364 -0.563776 0.009047 -1.132389 -0.270732 0.000000 0.000000 0.000000 -0.197359 -0.730855 -0.377943 -0.361460 -0.398305 1.405804 -0.224951 0.053260 -0.086759 0.000000 0.000000 0.000000 0.102721 -0.751660 0.931173 0.255334 -0.554354 -1.040314 0.108035 0.583491 0.081769 0.000000 0.000000 0.000000 
80.640000 -125.950000 1096.646970 -0.043440 1.549129 -0.064479 1.085220 -0.836030 -0.298626 1.119039 0.104005 0.205663 1.091747 -0.235745 -0.185560 -0.318849 -3.032449 0.219616 0.000000 0.000000 0.000000 -0.246261 2.071904 0.146264 -0.134946 1.900637 1.173478 0.133126 -2.858382 -0.320104 0.000000 0.000000 0.000000 0.180002 0.288743 0.915809 0.101938 0.630646 -0.762879 -0.002887 -1.592144 -0.496227 0.000000 0.000000 0.000000 -0.296532 -1.167870 -0.411192 -0.480709 -0.476004 1.489077 -0.333221 0.052942 -0.133649 0.000000 0.000000 0.000000 0.042466 -1.227875 0.996029 0.208768 -0.662300 -1.164286 0.047413 0.694639 0.064123 0.000000 0.000000 0.000000 
83.123000 -126.654000 1097.022950 0.236947 2.041601 -0.038887 1.020863 -0.953812 -0.311467 1.055002 0.100157 0.179684 1.030397 -0.232090 -0.167544 -0.355794 -3.571245 0.191963 0.000000 0.000000 0.000000 0.138955 2.198940 0.251050 -0.160555 2.114689 1.108111 0.119159 -2.753546 -0.358810 0.000000 0.000000 0.000000 0.381181 0.483138 0.976270 0.125565 0.806831 -0.760619 -0.016797 -1.847833 -0.677276 0.000000 0.000000 0.000000 -0.475455 -1.640120 -0.343448 -0.668100 -0.328388 1.456235 -0.515027 0.113256 -0.200336 0.000000 0.000000 0.000000 0.047064 -1.727451 0.994929 0.210972 -0.586239 -1.152996 0.048796 0.944600 0.080783 0.000000 0.000000 0.000000 
85.945000 -127.314000 1097.517940 0.561170 2.518006 -0.026026 0.877861 -1.091607 -0.302489 0.908585 0.082405 0.101950 0.892715 -0.197848 -0.108196 -0.387550 -3.950239 0.191822 0.000000 0.000000 0.000000 0.640148 2.124912 0.505877 -0.191296 2.221594 0.692307 0.094498 -2.146418 -0.276251 0.000000 0.000000 0.000000 0.550810 0.766892 0.901094 0.154310 1.020325 -0.619128 -0.031060 -2.018483 -0.839896 0.000000 0.000000 0.000000 -0.720817 -2.166220 -0.204660 -0.914327 -0.033097 1.340756 -0.760040 0.231607 -0.282865 0.000000 0.000000 0.000000 0.100781 -2.265991 0.944723 0.251469 -0.411370 -1.052689 0.096371 1.326927 0.124863 0.000000 0.000000 0.000000 
88.499000 -127.979000 1098.078980 0.892596 2.896170 -0.031734 0.741181 -1.096429 -0.261623 0.766086 0.056825 0.035877 0.758421 -0.150614 -0.050831 -0.409812 -4.244749 0.183789 0.000000 0.000000 0.000000 1.046431 1.942615 0.724865 -0.215664 2.205292 0.239950 0.058063 -1.438859 -0.221404 0.000000 0.000000 0.000000 0.541299 0.882068 0.803709 0.140357 1.077664 -0.445939 -0.046025 -1.711745 -0.883484 0.000000 0.000000 0.000000 -0.952842 -2.741299 -0.019194 -1.147275 0.563521 1.160850 -0.988358 0.279186 -0.372170 0.000000 0.000000 0.000000 0.146512 -2.923752 0.836959 0.265896 0.233112 -0.789533 0.141620 1.497436 0.154340 0.000000 0.000000 0.000000 
90.229000 -128.720990 1098.730960 1.243513 3.105942 -0.058665 0.672183 -0.827310 -0.175589 0.689260 0.030282 0.028406 0.684516 -0.095231 -0.025961 -0.416299 -4.530469 0.124311 0.000000 0.000000 0.000000 1.168756 1.692013 0.774667 -0.220845 2.020021 -0.017300 -0.002213 -0.811421 -0.327375 0.000000 0.000000 0.000000 0.184189 0.585747 0.770012 0.023089 0.789836 -0.319343 -0.069820 -0.392518 -0.704295 0.000000 0.000000 0.000000 -1.128663 -3.382992 0.213895 -1.326452 1.626718 0.886123 -1.158418 0.200134 -0.461251 0.000000 0.000000 0.000000 0.134464 -3.860195 0.625326 0.188718 1.834985 -0.223529 0.144271 1.174633 0.134603 0.000000 0.000000 0.000000 
91.366000 -129.526000 1099.494020 1.630296 3.187451 -0.124862 0.639825 -0.358468 -0.005796 0.644156 0.011528 0.035433 0.640511 -0.026945 -0.018103 -0.409776 -4.787556 0.028700 0.000000 0.000000 0.000000 1.087160 1.340512 0.719370 -0.211287 1.672554 -0.191400 -0.087072 -0.113578 -0.539154 0.000000 0.000000 0.000000 -0.462766 -0.019658 0.747212 -0.189559 0.224644 -0.172577 -0.114379 1.798755 -0.372757 0.000000 0.000000 0.000000 -1.281676 -4.102462 0.523842 -1.482139 3.094040 0.509311 -1.306595 0.086157 -0.547448 0.000000 0.000000 0.000000 0.091013 -5.052470 0.329380 0.049069 4.243414 0.621410 0.131604 0.578548 0.090988 0.000000 0.000000 0.000000 
92.596000 -130.190990 1100.105960 1.881361 3.217110 -0.266646 0.622635 0.091967 0.265201 0.609440 0.001974 0.002199 0.609188 0.024490 -0.007765 -0.402600 -4.852568 -0.014463 0.000000 0.000000 0.000000 0.999953 0.971790 0.581238 -0.204766 1.296446 -0.375500 -0.150628 0.312132 -0.730730 0.000000 0.000000 0.000000 -1.074311 -0.612839 0.739318 -0.375704 -0.332316 -0.002659 -0.157318 3.640544 -0.097269 0.000000 0.000000 0.000000 -1.369779 -4.822548 0.853739 -1.583591 4.701398 0.219265 -1.389715 -0.114968 -0.622353 0.000000 0.000000 0.000000 0.077918 -6.029277 0.151695 -0.042851 6.366010 1.360074 0.155864 0.076238 0.068431 0.000000 0.000000 0.000000 
94.350000 -130.476000 1100.404050 1.865646 3.210604 -0.496884 0.608849 0.425822 0.608159 0.574692 -0.002934 -0.067283 0.581046 0.046881 0.025053 -0.398538 -4.606228 0.041565 0.000000 0.000000 0.000000 1.064247 0.635680 0.360830 -0.215772 0.977437 -0.636431 -0.164489 0.191566 -0.856692 0.000000 0.000000 0.000000 -1.450741 -0.995658 0.786639 -0.433910 -0.669313 0.086169 -0.156288 4.198777 0.096446 0.000000 0.000000 0.000000 -1.341179 -5.498221 1.121479 -1.592582 6.377853 0.192054 -1.349552 -0.524528 -0.685079 0.000000 0.000000 0.000000 0.130632 -6.434818 0.217431 -0.014379 7.483560 1.729769 0.243910 -0.247893 0.083270 0.000000 0.000000 0.000000 
